<mxfile host="Electron" modified="2024-03-21T10:36:06.179Z" agent="Mozilla/5.0 (Windows NT 10.0; Win64; x64) AppleWebKit/537.36 (KHTML, like Gecko) draw.io/24.0.4 Chrome/120.0.6099.109 Electron/28.1.0 Safari/537.36" etag="30RPP2rhumvbnHgKSmqE" version="24.0.4" type="device">
  <diagram name="Page-1" id="13e1069c-82ec-6db2-03f1-153e76fe0fe0">
    <mxGraphModel dx="2607" dy="1520" grid="1" gridSize="10" guides="1" tooltips="1" connect="1" arrows="1" fold="1" page="1" pageScale="1" pageWidth="1100" pageHeight="850" background="none" math="0" shadow="0">
      <root>
        <mxCell id="0" />
        <mxCell id="1" parent="0" />
        <mxCell id="mKKs65J_xNr5mAzUvBza-55" value="" style="rounded=1;whiteSpace=wrap;html=1;container=1;collapsible=0;absoluteArcSize=1;arcSize=20;childLayout=stackLayout;horizontal=1;horizontalStack=0;resizeParent=1;resizeParentMax=0;resizeLast=0;" vertex="1" parent="1">
          <mxGeometry x="370" y="126" width="630" height="160" as="geometry" />
        </mxCell>
        <mxCell id="mKKs65J_xNr5mAzUvBza-56" value="&amp;nbsp; &amp;nbsp;Device Check-in" style="whiteSpace=wrap;connectable=0;html=1;shape=mxgraph.basic.rect;size=10;rectStyle=rounded;bottomRightStyle=square;bottomLeftStyle=square;fillColor=#fff2cc;part=1;align=left;strokeColor=#d6b656;" vertex="1" parent="mKKs65J_xNr5mAzUvBza-55">
          <mxGeometry width="630" height="20" as="geometry" />
        </mxCell>
        <mxCell id="mKKs65J_xNr5mAzUvBza-57" value="&lt;span style=&quot;color: rgba(0, 0, 0, 0); font-family: monospace; font-size: 0px; text-align: start; text-wrap: nowrap;&quot;&gt;%3CmxGraphModel%3E%3Croot%3E%3CmxCell%20id%3D%220%22%2F%3E%3CmxCell%20id%3D%221%22%20parent%3D%220%22%2F%3E%3CmxCell%20id%3D%222%22%20value%3D%22%22%20style%3D%22html%3D1%3Bpoints%3D%5B%5D%3Bperimeter%3DorthogonalPerimeter%3Brounded%3D0%3Bshadow%3D0%3Bcomic%3D0%3BlabelBackgroundColor%3Dnone%3BstrokeWidth%3D1%3BfontFamily%3DVerdana%3BfontSize%3D12%3Balign%3Dcenter%3B%22%20vertex%3D%221%22%20parent%3D%221%22%3E%3CmxGeometry%20x%3D%22535%22%20y%3D%22340%22%20width%3D%2210%22%20height%3D%2240%22%20as%3D%22geometry%22%2F%3E%3C%2FmxCell%3E%3CmxCell%20id%3D%223%22%20value%3D%22%22%20style%3D%22html%3D1%3Bpoints%3D%5B%5D%3Bperimeter%3DorthogonalPerimeter%3Brounded%3D0%3Bshadow%3D0%3Bcomic%3D0%3BlabelBackgroundColor%3Dnone%3BstrokeWidth%3D1%3BfontFamily%3DVerdana%3BfontSize%3D12%3Balign%3Dcenter%3B%22%20vertex%3D%221%22%20parent%3D%221%22%3E%3CmxGeometry%20x%3D%22695%22%20y%3D%22360%22%20width%3D%2210%22%20height%3D%2250%22%20as%3D%22geometry%22%2F%3E%3C%2FmxCell%3E%3CmxCell%20id%3D%224%22%20value%3D%22Register%20the%20%26lt%3Bbr%26gt%3Bnew%20client%22%20style%3D%22html%3D1%3BverticalAlign%3Dbottom%3BendArrow%3Dblock%3BlabelBackgroundColor%3Dnone%3BfontFamily%3DVerdana%3BfontSize%3D12%3Belbow%3Dvertical%3BedgeStyle%3DorthogonalEdgeStyle%3Bcurved%3D1%3BentryX%3D0.967%3BentryY%3D0.74%3BentryPerimeter%3D0%3BentryDx%3D0%3BentryDy%3D0%3BexitX%3D0.957%3BexitY%3D0.186%3BexitDx%3D0%3BexitDy%3D0%3BexitPerimeter%3D0%3B%22%20edge%3D%221%22%20source%3D%223%22%20target%3D%223%22%20parent%3D%221%22%3E%3CmxGeometry%20x%3D%22-0.4374%22%20y%3D%225%22%20relative%3D%221%22%20as%3D%22geometry%22%3E%3CmxPoint%20x%3D%22720%22%20y%3D%22370%22%20as%3D%22sourcePoint%22%2F%3E%3CmxPoint%20x%3D%22725%22%20y%3D%22408%22%20as%3D%22targetPoint%22%2F%3E%3CArray%20as%3D%22points%22%3E%3CmxPoint%20x%3D%22820%22%20y%3D%22380%22%2F%3E%3C%2FArray%3E%3CmxPoint%20as%3D%22offset%22%2F%3E%3C%2FmxGeometry%3E%3C%2FmxCell%3E%3CmxCell%20id%3D%225%22%20value%3D%22%22%20style%3D%22html%3D1%3Bpoints%3D%5B%5D%3Bperimeter%3DorthogonalPerimeter%3Brounded%3D0%3Bshadow%3D0%3Bcomic%3D0%3BlabelBackgroundColor%3Dnone%3BstrokeWidth%3D1%3BfontFamily%3DVerdana%3BfontSize%3D12%3Balign%3Dcenter%3B%22%20vertex%3D%221%22%20parent%3D%221%22%3E%3CmxGeometry%20x%3D%22395%22%20y%3D%22340%22%20width%3D%2210%22%20height%3D%2220%22%20as%3D%22geometry%22%2F%3E%3C%2FmxCell%3E%3CmxCell%20id%3D%226%22%20value%3D%22%26lt%3Bfont%20color%3D%26quot%3B%239999ff%26quot%3B%26gt%3Bgreeting%26lt%3B%2Ffont%26gt%3B%26lt%3Bbr%26gt%3B%26lt%3Bfont%20color%3D%26quot%3B%230000ff%26quot%3B%26gt%3BS_ABCD%26lt%3B%2Ffont%26gt%3B%22%20style%3D%22html%3D1%3BverticalAlign%3Dbottom%3BendArrow%3Dblock%3BentryX%3D0%3BentryY%3D0%3BlabelBackgroundColor%3Dnone%3BfontFamily%3DVerdana%3BfontSize%3D12%3BedgeStyle%3DelbowEdgeStyle%3Belbow%3Dvertical%3B%22%20edge%3D%221%22%20source%3D%225%22%20target%3D%222%22%20parent%3D%221%22%3E%3CmxGeometry%20relative%3D%221%22%20as%3D%22geometry%22%3E%3CmxPoint%20x%3D%22470%22%20y%3D%22350%22%20as%3D%22sourcePoint%22%2F%3E%3C%2FmxGeometry%3E%3C%2FmxCell%3E%3CmxCell%20id%3D%227%22%20value%3D%22dispatch%22%20style%3D%22html%3D1%3BverticalAlign%3Dbottom%3BendArrow%3Dblock%3BentryX%3D0%3BentryY%3D0%3BlabelBackgroundColor%3Dnone%3BfontFamily%3DVerdana%3BfontSize%3D12%3BedgeStyle%3DelbowEdgeStyle%3Belbow%3Dvertical%3B%22%20edge%3D%221%22%20source%3D%222%22%20target%3D%223%22%20parent%3D%221%22%3E%3CmxGeometry%20relative%3D%221%22%20as%3D%22geometry%22%3E%3CmxPoint%20x%3D%22620%22%20y%3D%22360%22%20as%3D%22sourcePoint%22%2F%3E%3C%2FmxGeometry%3E%3C%2FmxCell%3E%3C%2Froot%3E%3C%2FmxGraphModel%3E&lt;/span&gt;" style="shape=mxgraph.bpmn.task;arcSize=0;taskMarker=abstract;part=1;isLoopStandard=1;connectable=0;whiteSpace=wrap;html=1;" vertex="1" parent="mKKs65J_xNr5mAzUvBza-55">
          <mxGeometry y="20" width="630" height="120" as="geometry" />
        </mxCell>
        <mxCell id="mKKs65J_xNr5mAzUvBza-58" value="" style="whiteSpace=wrap;connectable=0;html=1;shape=mxgraph.basic.rect;size=10;rectStyle=rounded;topRightStyle=square;topLeftStyle=square;part=1;" vertex="1" parent="mKKs65J_xNr5mAzUvBza-55">
          <mxGeometry y="140" width="630" height="20" as="geometry" />
        </mxCell>
        <mxCell id="mKKs65J_xNr5mAzUvBza-51" value="" style="rounded=1;whiteSpace=wrap;html=1;container=1;collapsible=0;absoluteArcSize=1;arcSize=20;childLayout=stackLayout;horizontal=1;horizontalStack=0;resizeParent=1;resizeParentMax=0;resizeLast=0;fillColor=#d5e8d4;strokeColor=#82b366;" vertex="1" parent="1">
          <mxGeometry x="370" y="525" width="630" height="290" as="geometry" />
        </mxCell>
        <mxCell id="mKKs65J_xNr5mAzUvBza-52" value="&amp;nbsp; &amp;nbsp; Watering plant" style="whiteSpace=wrap;connectable=0;html=1;shape=mxgraph.basic.rect;size=10;rectStyle=rounded;bottomRightStyle=square;bottomLeftStyle=square;fillColor=#dae8fc;part=1;align=left;strokeColor=#6c8ebf;" vertex="1" parent="mKKs65J_xNr5mAzUvBza-51">
          <mxGeometry width="630" height="20" as="geometry" />
        </mxCell>
        <mxCell id="mKKs65J_xNr5mAzUvBza-53" value="&lt;span style=&quot;color: rgba(0, 0, 0, 0); font-family: monospace; font-size: 0px; text-align: start; text-wrap: nowrap;&quot;&gt;%3CmxGraphModel%3E%3Croot%3E%3CmxCell%20id%3D%220%22%2F%3E%3CmxCell%20id%3D%221%22%20parent%3D%220%22%2F%3E%3CmxCell%20id%3D%222%22%20value%3D%22%22%20style%3D%22html%3D1%3Bpoints%3D%5B%5D%3Bperimeter%3DorthogonalPerimeter%3Brounded%3D0%3Bshadow%3D0%3Bcomic%3D0%3BlabelBackgroundColor%3Dnone%3BstrokeWidth%3D1%3BfontFamily%3DVerdana%3BfontSize%3D12%3Balign%3Dcenter%3B%22%20vertex%3D%221%22%20parent%3D%221%22%3E%3CmxGeometry%20x%3D%22535%22%20y%3D%22340%22%20width%3D%2210%22%20height%3D%2240%22%20as%3D%22geometry%22%2F%3E%3C%2FmxCell%3E%3CmxCell%20id%3D%223%22%20value%3D%22%22%20style%3D%22html%3D1%3Bpoints%3D%5B%5D%3Bperimeter%3DorthogonalPerimeter%3Brounded%3D0%3Bshadow%3D0%3Bcomic%3D0%3BlabelBackgroundColor%3Dnone%3BstrokeWidth%3D1%3BfontFamily%3DVerdana%3BfontSize%3D12%3Balign%3Dcenter%3B%22%20vertex%3D%221%22%20parent%3D%221%22%3E%3CmxGeometry%20x%3D%22695%22%20y%3D%22360%22%20width%3D%2210%22%20height%3D%2250%22%20as%3D%22geometry%22%2F%3E%3C%2FmxCell%3E%3CmxCell%20id%3D%224%22%20value%3D%22Register%20the%20%26lt%3Bbr%26gt%3Bnew%20client%22%20style%3D%22html%3D1%3BverticalAlign%3Dbottom%3BendArrow%3Dblock%3BlabelBackgroundColor%3Dnone%3BfontFamily%3DVerdana%3BfontSize%3D12%3Belbow%3Dvertical%3BedgeStyle%3DorthogonalEdgeStyle%3Bcurved%3D1%3BentryX%3D0.967%3BentryY%3D0.74%3BentryPerimeter%3D0%3BentryDx%3D0%3BentryDy%3D0%3BexitX%3D0.957%3BexitY%3D0.186%3BexitDx%3D0%3BexitDy%3D0%3BexitPerimeter%3D0%3B%22%20edge%3D%221%22%20source%3D%223%22%20target%3D%223%22%20parent%3D%221%22%3E%3CmxGeometry%20x%3D%22-0.4374%22%20y%3D%225%22%20relative%3D%221%22%20as%3D%22geometry%22%3E%3CmxPoint%20x%3D%22720%22%20y%3D%22370%22%20as%3D%22sourcePoint%22%2F%3E%3CmxPoint%20x%3D%22725%22%20y%3D%22408%22%20as%3D%22targetPoint%22%2F%3E%3CArray%20as%3D%22points%22%3E%3CmxPoint%20x%3D%22820%22%20y%3D%22380%22%2F%3E%3C%2FArray%3E%3CmxPoint%20as%3D%22offset%22%2F%3E%3C%2FmxGeometry%3E%3C%2FmxCell%3E%3CmxCell%20id%3D%225%22%20value%3D%22%22%20style%3D%22html%3D1%3Bpoints%3D%5B%5D%3Bperimeter%3DorthogonalPerimeter%3Brounded%3D0%3Bshadow%3D0%3Bcomic%3D0%3BlabelBackgroundColor%3Dnone%3BstrokeWidth%3D1%3BfontFamily%3DVerdana%3BfontSize%3D12%3Balign%3Dcenter%3B%22%20vertex%3D%221%22%20parent%3D%221%22%3E%3CmxGeometry%20x%3D%22395%22%20y%3D%22340%22%20width%3D%2210%22%20height%3D%2220%22%20as%3D%22geometry%22%2F%3E%3C%2FmxCell%3E%3CmxCell%20id%3D%226%22%20value%3D%22%26lt%3Bfont%20color%3D%26quot%3B%239999ff%26quot%3B%26gt%3Bgreeting%26lt%3B%2Ffont%26gt%3B%26lt%3Bbr%26gt%3B%26lt%3Bfont%20color%3D%26quot%3B%230000ff%26quot%3B%26gt%3BS_ABCD%26lt%3B%2Ffont%26gt%3B%22%20style%3D%22html%3D1%3BverticalAlign%3Dbottom%3BendArrow%3Dblock%3BentryX%3D0%3BentryY%3D0%3BlabelBackgroundColor%3Dnone%3BfontFamily%3DVerdana%3BfontSize%3D12%3BedgeStyle%3DelbowEdgeStyle%3Belbow%3Dvertical%3B%22%20edge%3D%221%22%20source%3D%225%22%20target%3D%222%22%20parent%3D%221%22%3E%3CmxGeometry%20relative%3D%221%22%20as%3D%22geometry%22%3E%3CmxPoint%20x%3D%22470%22%20y%3D%22350%22%20as%3D%22sourcePoint%22%2F%3E%3C%2FmxGeometry%3E%3C%2FmxCell%3E%3CmxCell%20id%3D%227%22%20value%3D%22dispatch%22%20style%3D%22html%3D1%3BverticalAlign%3Dbottom%3BendArrow%3Dblock%3BentryX%3D0%3BentryY%3D0%3BlabelBackgroundColor%3Dnone%3BfontFamily%3DVerdana%3BfontSize%3D12%3BedgeStyle%3DelbowEdgeStyle%3Belbow%3Dvertical%3B%22%20edge%3D%221%22%20source%3D%222%22%20target%3D%223%22%20parent%3D%221%22%3E%3CmxGeometry%20relative%3D%221%22%20as%3D%22geometry%22%3E%3CmxPoint%20x%3D%22620%22%20y%3D%22360%22%20as%3D%22sourcePoint%22%2F%3E%3C%2FmxGeometry%3E%3C%2FmxCell%3E%3C%2Froot%3E%3C%2FmxGraphModel%3E&lt;/span&gt;" style="shape=mxgraph.bpmn.task;arcSize=0;taskMarker=abstract;part=1;isLoopStandard=1;connectable=0;whiteSpace=wrap;html=1;" vertex="1" parent="mKKs65J_xNr5mAzUvBza-51">
          <mxGeometry y="20" width="630" height="250" as="geometry" />
        </mxCell>
        <mxCell id="mKKs65J_xNr5mAzUvBza-54" value="" style="whiteSpace=wrap;connectable=0;html=1;shape=mxgraph.basic.rect;size=10;rectStyle=rounded;topRightStyle=square;topLeftStyle=square;part=1;" vertex="1" parent="mKKs65J_xNr5mAzUvBza-51">
          <mxGeometry y="270" width="630" height="20" as="geometry" />
        </mxCell>
        <mxCell id="mKKs65J_xNr5mAzUvBza-18" value="" style="rounded=1;whiteSpace=wrap;html=1;container=1;collapsible=0;absoluteArcSize=1;arcSize=20;childLayout=stackLayout;horizontal=1;horizontalStack=0;resizeParent=1;resizeParentMax=0;resizeLast=0;" vertex="1" parent="1">
          <mxGeometry x="370" y="310" width="630" height="210" as="geometry" />
        </mxCell>
        <mxCell id="mKKs65J_xNr5mAzUvBza-19" value="&amp;nbsp; &amp;nbsp;Humidity monitoring" style="whiteSpace=wrap;connectable=0;html=1;shape=mxgraph.basic.rect;size=10;rectStyle=rounded;bottomRightStyle=square;bottomLeftStyle=square;fillColor=#d5e8d4;part=1;align=left;strokeColor=#82b366;" vertex="1" parent="mKKs65J_xNr5mAzUvBza-18">
          <mxGeometry width="630" height="20" as="geometry" />
        </mxCell>
        <mxCell id="mKKs65J_xNr5mAzUvBza-20" value="&lt;span style=&quot;color: rgba(0, 0, 0, 0); font-family: monospace; font-size: 0px; text-align: start; text-wrap: nowrap;&quot;&gt;%3CmxGraphModel%3E%3Croot%3E%3CmxCell%20id%3D%220%22%2F%3E%3CmxCell%20id%3D%221%22%20parent%3D%220%22%2F%3E%3CmxCell%20id%3D%222%22%20value%3D%22%22%20style%3D%22html%3D1%3Bpoints%3D%5B%5D%3Bperimeter%3DorthogonalPerimeter%3Brounded%3D0%3Bshadow%3D0%3Bcomic%3D0%3BlabelBackgroundColor%3Dnone%3BstrokeWidth%3D1%3BfontFamily%3DVerdana%3BfontSize%3D12%3Balign%3Dcenter%3B%22%20vertex%3D%221%22%20parent%3D%221%22%3E%3CmxGeometry%20x%3D%22535%22%20y%3D%22340%22%20width%3D%2210%22%20height%3D%2240%22%20as%3D%22geometry%22%2F%3E%3C%2FmxCell%3E%3CmxCell%20id%3D%223%22%20value%3D%22%22%20style%3D%22html%3D1%3Bpoints%3D%5B%5D%3Bperimeter%3DorthogonalPerimeter%3Brounded%3D0%3Bshadow%3D0%3Bcomic%3D0%3BlabelBackgroundColor%3Dnone%3BstrokeWidth%3D1%3BfontFamily%3DVerdana%3BfontSize%3D12%3Balign%3Dcenter%3B%22%20vertex%3D%221%22%20parent%3D%221%22%3E%3CmxGeometry%20x%3D%22695%22%20y%3D%22360%22%20width%3D%2210%22%20height%3D%2250%22%20as%3D%22geometry%22%2F%3E%3C%2FmxCell%3E%3CmxCell%20id%3D%224%22%20value%3D%22Register%20the%20%26lt%3Bbr%26gt%3Bnew%20client%22%20style%3D%22html%3D1%3BverticalAlign%3Dbottom%3BendArrow%3Dblock%3BlabelBackgroundColor%3Dnone%3BfontFamily%3DVerdana%3BfontSize%3D12%3Belbow%3Dvertical%3BedgeStyle%3DorthogonalEdgeStyle%3Bcurved%3D1%3BentryX%3D0.967%3BentryY%3D0.74%3BentryPerimeter%3D0%3BentryDx%3D0%3BentryDy%3D0%3BexitX%3D0.957%3BexitY%3D0.186%3BexitDx%3D0%3BexitDy%3D0%3BexitPerimeter%3D0%3B%22%20edge%3D%221%22%20source%3D%223%22%20target%3D%223%22%20parent%3D%221%22%3E%3CmxGeometry%20x%3D%22-0.4374%22%20y%3D%225%22%20relative%3D%221%22%20as%3D%22geometry%22%3E%3CmxPoint%20x%3D%22720%22%20y%3D%22370%22%20as%3D%22sourcePoint%22%2F%3E%3CmxPoint%20x%3D%22725%22%20y%3D%22408%22%20as%3D%22targetPoint%22%2F%3E%3CArray%20as%3D%22points%22%3E%3CmxPoint%20x%3D%22820%22%20y%3D%22380%22%2F%3E%3C%2FArray%3E%3CmxPoint%20as%3D%22offset%22%2F%3E%3C%2FmxGeometry%3E%3C%2FmxCell%3E%3CmxCell%20id%3D%225%22%20value%3D%22%22%20style%3D%22html%3D1%3Bpoints%3D%5B%5D%3Bperimeter%3DorthogonalPerimeter%3Brounded%3D0%3Bshadow%3D0%3Bcomic%3D0%3BlabelBackgroundColor%3Dnone%3BstrokeWidth%3D1%3BfontFamily%3DVerdana%3BfontSize%3D12%3Balign%3Dcenter%3B%22%20vertex%3D%221%22%20parent%3D%221%22%3E%3CmxGeometry%20x%3D%22395%22%20y%3D%22340%22%20width%3D%2210%22%20height%3D%2220%22%20as%3D%22geometry%22%2F%3E%3C%2FmxCell%3E%3CmxCell%20id%3D%226%22%20value%3D%22%26lt%3Bfont%20color%3D%26quot%3B%239999ff%26quot%3B%26gt%3Bgreeting%26lt%3B%2Ffont%26gt%3B%26lt%3Bbr%26gt%3B%26lt%3Bfont%20color%3D%26quot%3B%230000ff%26quot%3B%26gt%3BS_ABCD%26lt%3B%2Ffont%26gt%3B%22%20style%3D%22html%3D1%3BverticalAlign%3Dbottom%3BendArrow%3Dblock%3BentryX%3D0%3BentryY%3D0%3BlabelBackgroundColor%3Dnone%3BfontFamily%3DVerdana%3BfontSize%3D12%3BedgeStyle%3DelbowEdgeStyle%3Belbow%3Dvertical%3B%22%20edge%3D%221%22%20source%3D%225%22%20target%3D%222%22%20parent%3D%221%22%3E%3CmxGeometry%20relative%3D%221%22%20as%3D%22geometry%22%3E%3CmxPoint%20x%3D%22470%22%20y%3D%22350%22%20as%3D%22sourcePoint%22%2F%3E%3C%2FmxGeometry%3E%3C%2FmxCell%3E%3CmxCell%20id%3D%227%22%20value%3D%22dispatch%22%20style%3D%22html%3D1%3BverticalAlign%3Dbottom%3BendArrow%3Dblock%3BentryX%3D0%3BentryY%3D0%3BlabelBackgroundColor%3Dnone%3BfontFamily%3DVerdana%3BfontSize%3D12%3BedgeStyle%3DelbowEdgeStyle%3Belbow%3Dvertical%3B%22%20edge%3D%221%22%20source%3D%222%22%20target%3D%223%22%20parent%3D%221%22%3E%3CmxGeometry%20relative%3D%221%22%20as%3D%22geometry%22%3E%3CmxPoint%20x%3D%22620%22%20y%3D%22360%22%20as%3D%22sourcePoint%22%2F%3E%3C%2FmxGeometry%3E%3C%2FmxCell%3E%3C%2Froot%3E%3C%2FmxGraphModel%3E&lt;/span&gt;" style="shape=mxgraph.bpmn.task;arcSize=0;taskMarker=abstract;part=1;isLoopStandard=1;connectable=0;whiteSpace=wrap;html=1;" vertex="1" parent="mKKs65J_xNr5mAzUvBza-18">
          <mxGeometry y="20" width="630" height="170" as="geometry" />
        </mxCell>
        <mxCell id="mKKs65J_xNr5mAzUvBza-21" value="" style="whiteSpace=wrap;connectable=0;html=1;shape=mxgraph.basic.rect;size=10;rectStyle=rounded;topRightStyle=square;topLeftStyle=square;part=1;" vertex="1" parent="mKKs65J_xNr5mAzUvBza-18">
          <mxGeometry y="190" width="630" height="20" as="geometry" />
        </mxCell>
        <mxCell id="7baba1c4bc27f4b0-2" value="MQTT broker" style="shape=umlLifeline;perimeter=lifelinePerimeter;whiteSpace=wrap;html=1;container=1;collapsible=0;recursiveResize=0;outlineConnect=0;rounded=1;shadow=0;comic=0;labelBackgroundColor=none;strokeWidth=1;fontFamily=Verdana;fontSize=12;align=center;" parent="1" vertex="1">
          <mxGeometry x="625" y="70" width="100" height="730" as="geometry" />
        </mxCell>
        <mxCell id="7baba1c4bc27f4b0-10" value="" style="html=1;points=[];perimeter=orthogonalPerimeter;rounded=0;shadow=0;comic=0;labelBackgroundColor=none;strokeWidth=1;fontFamily=Verdana;fontSize=12;align=center;" parent="7baba1c4bc27f4b0-2" vertex="1">
          <mxGeometry x="45" y="112" width="10" height="40" as="geometry" />
        </mxCell>
        <mxCell id="mKKs65J_xNr5mAzUvBza-12" value="" style="html=1;points=[];perimeter=orthogonalPerimeter;rounded=0;shadow=0;comic=0;labelBackgroundColor=none;strokeWidth=1;fontFamily=Verdana;fontSize=12;align=center;" vertex="1" parent="7baba1c4bc27f4b0-2">
          <mxGeometry x="45" y="320" width="10" height="40" as="geometry" />
        </mxCell>
        <mxCell id="mKKs65J_xNr5mAzUvBza-13" value="" style="html=1;points=[];perimeter=orthogonalPerimeter;rounded=0;shadow=0;comic=0;labelBackgroundColor=none;strokeWidth=1;fontFamily=Verdana;fontSize=12;align=center;" vertex="1" parent="7baba1c4bc27f4b0-2">
          <mxGeometry x="205" y="340" width="10" height="50" as="geometry" />
        </mxCell>
        <mxCell id="mKKs65J_xNr5mAzUvBza-14" value="Register the &lt;br&gt;humidy value" style="html=1;verticalAlign=bottom;endArrow=block;labelBackgroundColor=none;fontFamily=Verdana;fontSize=12;elbow=vertical;edgeStyle=orthogonalEdgeStyle;curved=1;entryX=0.967;entryY=0.74;entryPerimeter=0;entryDx=0;entryDy=0;exitX=0.957;exitY=0.186;exitDx=0;exitDy=0;exitPerimeter=0;" edge="1" source="mKKs65J_xNr5mAzUvBza-13" target="mKKs65J_xNr5mAzUvBza-13" parent="7baba1c4bc27f4b0-2">
          <mxGeometry x="-0.4374" y="5" relative="1" as="geometry">
            <mxPoint x="230" y="350" as="sourcePoint" />
            <mxPoint x="235" y="388" as="targetPoint" />
            <Array as="points">
              <mxPoint x="330" y="360" />
            </Array>
            <mxPoint as="offset" />
          </mxGeometry>
        </mxCell>
        <mxCell id="mKKs65J_xNr5mAzUvBza-15" value="" style="html=1;points=[];perimeter=orthogonalPerimeter;rounded=0;shadow=0;comic=0;labelBackgroundColor=none;strokeWidth=1;fontFamily=Verdana;fontSize=12;align=center;" vertex="1" parent="7baba1c4bc27f4b0-2">
          <mxGeometry x="-95" y="320" width="10" height="20" as="geometry" />
        </mxCell>
        <mxCell id="mKKs65J_xNr5mAzUvBza-16" value="&lt;font color=&quot;#9999ff&quot;&gt;sensor/ABCD&lt;/font&gt;&lt;br&gt;&lt;font color=&quot;#0000ff&quot;&gt;D2_HH_XY&lt;/font&gt;" style="html=1;verticalAlign=bottom;endArrow=block;entryX=0;entryY=0;labelBackgroundColor=none;fontFamily=Verdana;fontSize=12;edgeStyle=elbowEdgeStyle;elbow=vertical;" edge="1" source="mKKs65J_xNr5mAzUvBza-15" target="mKKs65J_xNr5mAzUvBza-12" parent="7baba1c4bc27f4b0-2">
          <mxGeometry relative="1" as="geometry">
            <mxPoint x="-20" y="330" as="sourcePoint" />
          </mxGeometry>
        </mxCell>
        <mxCell id="mKKs65J_xNr5mAzUvBza-17" value="dispatch" style="html=1;verticalAlign=bottom;endArrow=block;entryX=0;entryY=0;labelBackgroundColor=none;fontFamily=Verdana;fontSize=12;edgeStyle=elbowEdgeStyle;elbow=vertical;" edge="1" source="mKKs65J_xNr5mAzUvBza-12" target="mKKs65J_xNr5mAzUvBza-13" parent="7baba1c4bc27f4b0-2">
          <mxGeometry relative="1" as="geometry">
            <mxPoint x="130" y="340" as="sourcePoint" />
          </mxGeometry>
        </mxCell>
        <mxCell id="mKKs65J_xNr5mAzUvBza-42" value="" style="html=1;points=[];perimeter=orthogonalPerimeter;rounded=0;shadow=0;comic=0;labelBackgroundColor=none;strokeWidth=1;fontFamily=Verdana;fontSize=12;align=center;" vertex="1" parent="7baba1c4bc27f4b0-2">
          <mxGeometry x="45" y="604" width="10" height="26" as="geometry" />
        </mxCell>
        <mxCell id="mKKs65J_xNr5mAzUvBza-50" value="" style="html=1;points=[];perimeter=orthogonalPerimeter;rounded=0;shadow=0;comic=0;labelBackgroundColor=none;strokeWidth=1;fontFamily=Verdana;fontSize=12;align=center;" vertex="1" parent="7baba1c4bc27f4b0-2">
          <mxGeometry x="45" y="660" width="10" height="26" as="geometry" />
        </mxCell>
        <mxCell id="7baba1c4bc27f4b0-3" value="SeriGarden-BE" style="shape=umlLifeline;perimeter=lifelinePerimeter;whiteSpace=wrap;html=1;container=1;collapsible=0;recursiveResize=0;outlineConnect=0;rounded=1;shadow=0;comic=0;labelBackgroundColor=none;strokeWidth=1;fontFamily=Verdana;fontSize=12;align=center;" parent="1" vertex="1">
          <mxGeometry x="785" y="70" width="100" height="730" as="geometry" />
        </mxCell>
        <mxCell id="7baba1c4bc27f4b0-13" value="" style="html=1;points=[];perimeter=orthogonalPerimeter;rounded=0;shadow=0;comic=0;labelBackgroundColor=none;strokeWidth=1;fontFamily=Verdana;fontSize=12;align=center;" parent="7baba1c4bc27f4b0-3" vertex="1">
          <mxGeometry x="45" y="132" width="10" height="50" as="geometry" />
        </mxCell>
        <mxCell id="mKKs65J_xNr5mAzUvBza-4" value="Register the &lt;br&gt;new client" style="html=1;verticalAlign=bottom;endArrow=block;labelBackgroundColor=none;fontFamily=Verdana;fontSize=12;elbow=vertical;edgeStyle=orthogonalEdgeStyle;curved=1;entryX=0.967;entryY=0.74;entryPerimeter=0;entryDx=0;entryDy=0;exitX=0.957;exitY=0.186;exitDx=0;exitDy=0;exitPerimeter=0;" edge="1" parent="7baba1c4bc27f4b0-3" source="7baba1c4bc27f4b0-13" target="7baba1c4bc27f4b0-13">
          <mxGeometry x="-0.4374" y="5" relative="1" as="geometry">
            <mxPoint x="70" y="142" as="sourcePoint" />
            <mxPoint x="75" y="180" as="targetPoint" />
            <Array as="points">
              <mxPoint x="170" y="152" />
            </Array>
            <mxPoint as="offset" />
          </mxGeometry>
        </mxCell>
        <mxCell id="mKKs65J_xNr5mAzUvBza-23" value="" style="html=1;points=[];perimeter=orthogonalPerimeter;rounded=0;shadow=0;comic=0;labelBackgroundColor=none;strokeWidth=1;fontFamily=Verdana;fontSize=12;align=center;" vertex="1" parent="7baba1c4bc27f4b0-3">
          <mxGeometry x="45" y="580" width="10" height="50" as="geometry" />
        </mxCell>
        <mxCell id="mKKs65J_xNr5mAzUvBza-36" value="" style="html=1;points=[];perimeter=orthogonalPerimeter;rounded=0;shadow=0;comic=0;labelBackgroundColor=none;strokeWidth=1;fontFamily=Verdana;fontSize=12;align=center;" vertex="1" parent="7baba1c4bc27f4b0-3">
          <mxGeometry x="45" y="670" width="10" height="50" as="geometry" />
        </mxCell>
        <mxCell id="mKKs65J_xNr5mAzUvBza-37" value="Register the &lt;br&gt;watering succeded" style="html=1;verticalAlign=bottom;endArrow=block;labelBackgroundColor=none;fontFamily=Verdana;fontSize=12;elbow=vertical;edgeStyle=orthogonalEdgeStyle;curved=1;entryX=0.967;entryY=0.74;entryPerimeter=0;entryDx=0;entryDy=0;exitX=0.957;exitY=0.186;exitDx=0;exitDy=0;exitPerimeter=0;" edge="1" source="mKKs65J_xNr5mAzUvBza-36" target="mKKs65J_xNr5mAzUvBza-36" parent="7baba1c4bc27f4b0-3">
          <mxGeometry x="-0.4374" y="5" relative="1" as="geometry">
            <mxPoint x="70" y="827" as="sourcePoint" />
            <mxPoint x="75" y="865" as="targetPoint" />
            <Array as="points">
              <mxPoint x="170" y="690" />
            </Array>
            <mxPoint as="offset" />
          </mxGeometry>
        </mxCell>
        <mxCell id="7baba1c4bc27f4b0-8" value="IoT device" style="shape=umlLifeline;perimeter=lifelinePerimeter;whiteSpace=wrap;html=1;container=1;collapsible=0;recursiveResize=0;outlineConnect=0;rounded=1;shadow=0;comic=0;labelBackgroundColor=none;strokeWidth=1;fontFamily=Verdana;fontSize=12;align=center;" parent="1" vertex="1">
          <mxGeometry x="485" y="70" width="100" height="730" as="geometry" />
        </mxCell>
        <mxCell id="7baba1c4bc27f4b0-9" value="" style="html=1;points=[];perimeter=orthogonalPerimeter;rounded=0;shadow=0;comic=0;labelBackgroundColor=none;strokeWidth=1;fontFamily=Verdana;fontSize=12;align=center;" parent="7baba1c4bc27f4b0-8" vertex="1">
          <mxGeometry x="45" y="112" width="10" height="20" as="geometry" />
        </mxCell>
        <mxCell id="mKKs65J_xNr5mAzUvBza-38" value="" style="html=1;points=[];perimeter=orthogonalPerimeter;rounded=0;shadow=0;comic=0;labelBackgroundColor=none;strokeWidth=1;fontFamily=Verdana;fontSize=12;align=center;" vertex="1" parent="7baba1c4bc27f4b0-8">
          <mxGeometry x="45" y="615" width="10" height="62" as="geometry" />
        </mxCell>
        <mxCell id="mKKs65J_xNr5mAzUvBza-47" value="Water the&lt;br&gt;plant" style="html=1;verticalAlign=bottom;endArrow=block;labelBackgroundColor=none;fontFamily=Verdana;fontSize=12;elbow=vertical;edgeStyle=orthogonalEdgeStyle;curved=1;entryX=-0.069;entryY=0.722;entryPerimeter=0;entryDx=0;entryDy=0;exitX=0.028;exitY=0.161;exitDx=0;exitDy=0;exitPerimeter=0;" edge="1" parent="7baba1c4bc27f4b0-8" source="mKKs65J_xNr5mAzUvBza-38" target="mKKs65J_xNr5mAzUvBza-38">
          <mxGeometry relative="1" as="geometry">
            <mxPoint x="20.599999999999945" y="625.788" as="sourcePoint" />
            <mxPoint x="20.039999999999942" y="650.774" as="targetPoint" />
            <Array as="points">
              <mxPoint x="-30" y="640" />
            </Array>
          </mxGeometry>
        </mxCell>
        <mxCell id="7baba1c4bc27f4b0-11" value="&lt;font color=&quot;#9999ff&quot;&gt;greeting&lt;/font&gt;&lt;br&gt;&lt;font color=&quot;#0000ff&quot;&gt;S_ABCD&lt;/font&gt;" style="html=1;verticalAlign=bottom;endArrow=block;entryX=0;entryY=0;labelBackgroundColor=none;fontFamily=Verdana;fontSize=12;edgeStyle=elbowEdgeStyle;elbow=vertical;" parent="1" source="7baba1c4bc27f4b0-9" target="7baba1c4bc27f4b0-10" edge="1">
          <mxGeometry relative="1" as="geometry">
            <mxPoint x="605" y="192" as="sourcePoint" />
          </mxGeometry>
        </mxCell>
        <mxCell id="7baba1c4bc27f4b0-14" value="dispatch" style="html=1;verticalAlign=bottom;endArrow=block;entryX=0;entryY=0;labelBackgroundColor=none;fontFamily=Verdana;fontSize=12;edgeStyle=elbowEdgeStyle;elbow=vertical;" parent="1" source="7baba1c4bc27f4b0-10" target="7baba1c4bc27f4b0-13" edge="1">
          <mxGeometry relative="1" as="geometry">
            <mxPoint x="755" y="202" as="sourcePoint" />
          </mxGeometry>
        </mxCell>
        <mxCell id="mKKs65J_xNr5mAzUvBza-1" value="&lt;div&gt;&lt;br&gt;&lt;/div&gt;ABCD -&amp;gt; Unique device ID (MAC address)&lt;div&gt;XY -&amp;gt; Sensor number (referred to device)&lt;br&gt;&lt;div&gt;HH -&amp;gt; Humity percentage (0-100)&lt;/div&gt;&lt;div&gt;KK -&amp;gt; ms to water&lt;br&gt;WI -&amp;gt; watering ID&lt;/div&gt;&lt;/div&gt;" style="shape=note;whiteSpace=wrap;html=1;size=14;verticalAlign=top;align=left;spacingTop=-6;rounded=0;shadow=0;comic=0;labelBackgroundColor=none;strokeWidth=1;fontFamily=Verdana;fontSize=12" vertex="1" parent="1">
          <mxGeometry x="40" y="126" width="260" height="210" as="geometry" />
        </mxCell>
        <mxCell id="mKKs65J_xNr5mAzUvBza-22" value="" style="html=1;points=[];perimeter=orthogonalPerimeter;rounded=0;shadow=0;comic=0;labelBackgroundColor=none;strokeWidth=1;fontFamily=Verdana;fontSize=12;align=center;" vertex="1" parent="1">
          <mxGeometry x="670" y="580" width="10" height="40" as="geometry" />
        </mxCell>
        <mxCell id="mKKs65J_xNr5mAzUvBza-25" value="" style="html=1;points=[];perimeter=orthogonalPerimeter;rounded=0;shadow=0;comic=0;labelBackgroundColor=none;strokeWidth=1;fontFamily=Verdana;fontSize=12;align=center;" vertex="1" parent="1">
          <mxGeometry x="530" y="580" width="10" height="20" as="geometry" />
        </mxCell>
        <mxCell id="mKKs65J_xNr5mAzUvBza-26" value="Subscribe:&lt;br&gt;&lt;font color=&quot;#9999ff&quot;&gt;water2/ABCD&lt;/font&gt;" style="html=1;verticalAlign=bottom;endArrow=block;entryX=0;entryY=0;labelBackgroundColor=none;fontFamily=Verdana;fontSize=12;edgeStyle=elbowEdgeStyle;elbow=vertical;" edge="1" source="mKKs65J_xNr5mAzUvBza-25" target="mKKs65J_xNr5mAzUvBza-22" parent="1">
          <mxGeometry x="-0.0054" relative="1" as="geometry">
            <mxPoint x="605" y="590" as="sourcePoint" />
            <mxPoint as="offset" />
          </mxGeometry>
        </mxCell>
        <mxCell id="mKKs65J_xNr5mAzUvBza-40" value="dispatch" style="html=1;verticalAlign=bottom;endArrow=block;entryX=0;entryY=0;labelBackgroundColor=none;fontFamily=Verdana;fontSize=12;edgeStyle=elbowEdgeStyle;elbow=vertical;exitX=1.186;exitY=0.354;exitDx=0;exitDy=0;exitPerimeter=0;" edge="1" source="mKKs65J_xNr5mAzUvBza-50" target="mKKs65J_xNr5mAzUvBza-36" parent="1">
          <mxGeometry x="0.0009" relative="1" as="geometry">
            <mxPoint x="755" y="887" as="sourcePoint" />
            <mxPoint as="offset" />
          </mxGeometry>
        </mxCell>
        <mxCell id="mKKs65J_xNr5mAzUvBza-41" value="&lt;div&gt;&lt;font color=&quot;#9999ff&quot;&gt;water2/ABCD&lt;/font&gt;&lt;br&gt;&lt;font color=&quot;#0000ff&quot;&gt;W_WI_KK_XY&lt;/font&gt;&lt;font color=&quot;#9999ff&quot;&gt;&lt;br&gt;&lt;/font&gt;&lt;/div&gt;" style="html=1;verticalAlign=bottom;endArrow=block;labelBackgroundColor=none;fontFamily=Verdana;fontSize=12;edgeStyle=elbowEdgeStyle;elbow=vertical;exitX=0.035;exitY=0.485;exitDx=0;exitDy=0;exitPerimeter=0;entryX=1.089;entryY=0.044;entryDx=0;entryDy=0;entryPerimeter=0;" edge="1" parent="1" source="mKKs65J_xNr5mAzUvBza-23" target="mKKs65J_xNr5mAzUvBza-42">
          <mxGeometry x="-0.0054" relative="1" as="geometry">
            <mxPoint x="995" y="630" as="sourcePoint" />
            <mxPoint x="685" y="675" as="targetPoint" />
            <mxPoint as="offset" />
          </mxGeometry>
        </mxCell>
        <mxCell id="mKKs65J_xNr5mAzUvBza-43" value="dispatch" style="html=1;verticalAlign=bottom;endArrow=block;entryX=1.048;entryY=0.047;labelBackgroundColor=none;fontFamily=Verdana;fontSize=12;edgeStyle=elbowEdgeStyle;elbow=vertical;exitX=0.152;exitY=0.545;exitDx=0;exitDy=0;exitPerimeter=0;entryDx=0;entryDy=0;entryPerimeter=0;" edge="1" parent="1" source="mKKs65J_xNr5mAzUvBza-42" target="mKKs65J_xNr5mAzUvBza-38">
          <mxGeometry x="0.0009" relative="1" as="geometry">
            <mxPoint x="575" y="770" as="sourcePoint" />
            <mxPoint x="725" y="770" as="targetPoint" />
            <mxPoint as="offset" />
          </mxGeometry>
        </mxCell>
        <mxCell id="mKKs65J_xNr5mAzUvBza-49" value="&lt;div&gt;&lt;font color=&quot;#9999ff&quot;&gt;sensor/ABCD&lt;/font&gt;&lt;br&gt;&lt;font color=&quot;#0000ff&quot;&gt;W_WI&lt;/font&gt;&lt;font color=&quot;#9999ff&quot;&gt;&lt;br&gt;&lt;/font&gt;&lt;/div&gt;" style="html=1;verticalAlign=bottom;endArrow=block;labelBackgroundColor=none;fontFamily=Verdana;fontSize=12;edgeStyle=elbowEdgeStyle;elbow=vertical;exitX=0.979;exitY=0.73;exitDx=0;exitDy=0;exitPerimeter=0;" edge="1" parent="1" source="mKKs65J_xNr5mAzUvBza-38" target="mKKs65J_xNr5mAzUvBza-50">
          <mxGeometry x="-0.0054" relative="1" as="geometry">
            <mxPoint x="744.11" y="759.75" as="sourcePoint" />
            <mxPoint x="665" y="730" as="targetPoint" />
            <mxPoint as="offset" />
          </mxGeometry>
        </mxCell>
      </root>
    </mxGraphModel>
  </diagram>
</mxfile>
